<?xml version="1.0" encoding="UTF-8" standalone="no"?>
<!DOCTYPE svg  PUBLIC '-//W3C//DTD SVG 1.1//EN'  'http://www.w3.org/Graphics/SVG/1.1/DTD/svg11.dtd'>
<svg xmlns="http://www.w3.org/2000/svg">
<defs>
<font id="AlternateGotNo2D-Regular" vert-adv-y="2048" horiz-adv-x="1024">
<font-face underline-position="-138" font-weight="400" descent="-410" panose-1="0 0 0 0 0 0 0 0 0 3" units-per-em="2048" unicode-range="U+0020-25CA" bbox="-51 -512 1499 1760" x-height="1017" underline-thickness="126" font-family="AlternateGotNo2D" ascent="1638" cap-height="1365"/>
<missing-glyph vert-adv-y="1731" horiz-adv-x="2048"/>
<glyph vert-adv-y="1731" glyph-name=".notdef" horiz-adv-x="2048"/>
<glyph vert-adv-y="0" glyph-name="glyph1" horiz-adv-x="0"/>
<glyph vert-adv-y="1731" glyph-name="glyph2" horiz-adv-x="2048"/>
<glyph vert-adv-y="1731" glyph-name="space" horiz-adv-x="362" unicode=" "/>
<glyph vert-adv-y="1731" glyph-name="space" horiz-adv-x="362" unicode=" "/>
<glyph vert-adv-y="1731" glyph-name="exclam" horiz-adv-x="457" unicode="!" d="M328 212v-212h-198v212h198zM293 403h-128l-42 962h212z"/>
<glyph vert-adv-y="1731" glyph-name="quotedbl" horiz-adv-x="731" unicode='&quot;' d="M608 819h-148l-33 546h215zM270 819h-147l-34 546h215z"/>
<glyph vert-adv-y="1731" glyph-name="numbersign" horiz-adv-x="819" unicode="#" d="M512 837h-152l-53 -325h151zM534 976l64 389h117l-63 -389h99l-23 -139h-99l-53 -325h107l-22 -140h-108l-60 -372h-118l61 372h-152l-61 -372h-118l61 372h-98l24 140h97l53 325h-104l26 139h101l63 389h118l-64 -389h152z"/>
<glyph vert-adv-y="1731" glyph-name="dollar" horiz-adv-x="778" unicode="$" d="M661 1232l-135 -124q-60 100 -139 100q-57 0 -92 -42q-36 -44 -36 -116q0 -77 50 -147q24 -34 66 -71q7 -5 107 -87q104 -85 161 -176q61 -99 61 -231q0 -295 -273 -346v-200h-109v201q-88 9 -162 66q-62 48 -99 112l143 120q62 -134 168 -134q72 0 108 53q33 48 33 129 q0 98 -60 171q-39 48 -174 161q-108 90 -157 178q-47 86 -47 195q0 164 104 256q55 48 143 69v139h109v-138q146 -18 230 -138z"/>
<glyph vert-adv-y="1731" glyph-name="percent" horiz-adv-x="1090" unicode="%" d="M791 491v-304q0 -59 7 -77q10 -26 43 -26t43 26q7 18 7 77v304q0 58 -7 76q-10 26 -43 26t-43 -26q-7 -18 -7 -76zM1008 489v-301q0 -100 -35 -146q-47 -62 -132 -62t-132 62q-35 47 -35 146v301q0 100 35 146q47 62 132 62t132 -62q35 -46 35 -146zM779 1365h123 l-591 -1365h-123zM199 1179v-304q0 -58 7 -76q10 -26 43 -26t43 26q7 18 7 76v304q0 58 -7 76q-10 26 -43 26t-43 -26q-7 -18 -7 -76zM416 1178v-301q0 -100 -35 -146q-47 -62 -132 -62t-132 62q-35 46 -35 146v301q0 99 35 145q47 62 132 62t132 -62q35 -46 35 -145z"/>
<glyph vert-adv-y="1731" glyph-name="ampersand" horiz-adv-x="909" unicode="&amp;" d="M330 513q-63 -118 -63 -199q0 -57 35 -91q34 -32 86 -32q61 0 107 49q-101 150 -165 273zM372 852q6 7 9 11q93 123 93 260q0 126 -76 126q-40 0 -61 -38q-25 -47 -25 -118q0 -100 60 -241zM675 651l166 -39q-37 -195 -117 -350q32 -55 107 -77v-205q-137 21 -218 119 q-107 -113 -236 -113q-119 0 -199 68q-96 81 -96 241q0 133 71 256q28 49 88 137q-96 234 -96 381t81 233q72 77 182 77q107 0 172 -72q65 -70 65 -193q0 -136 -78 -265q-41 -68 -117 -165q69 -145 157 -272q37 84 68 239z"/>
<glyph vert-adv-y="1731" glyph-name="quotesingle" horiz-adv-x="399" unicode="&apos;" d="M276 819h-153l-34 546h221z"/>
<glyph vert-adv-y="1731" glyph-name="parenleft" horiz-adv-x="601" unicode="(" d="M515 -180l-135 -73q-281 433 -281 847q0 416 281 848l135 -74q-74 -121 -125 -241q-107 -259 -107 -533t107 -532q50 -120 125 -242z"/>
<glyph vert-adv-y="1731" glyph-name="parenright" horiz-adv-x="601" unicode=")" d="M86 1368l135 74q88 -137 141 -249q140 -298 140 -599q0 -415 -281 -847l-135 73q74 120 124 242q108 258 108 532t-108 532q-50 121 -124 242z"/>
<glyph vert-adv-y="1731" glyph-name="asterisk" horiz-adv-x="641" unicode="*" d="M225 1107l-143 30l46 143l133 -62l-16 147h151l-16 -147l133 62l46 -143l-143 -28l98 -109l-121 -89l-72 126l-73 -126l-121 89z"/>
<glyph vert-adv-y="1731" glyph-name="plus" horiz-adv-x="778" unicode="+" d="M691 776v-159h-219v-215h-166v215h-219v159h219v215h166v-215h219z"/>
<glyph vert-adv-y="1731" glyph-name="comma" horiz-adv-x="369" unicode="," d="M283 212v-212l-107 -237h-91l72 237h-72v212h198z"/>
<glyph vert-adv-y="1731" glyph-name="hyphen" horiz-adv-x="286" unicode="-" d="M286 611v-184h-286v184h286z"/>
<glyph vert-adv-y="1731" glyph-name="period" horiz-adv-x="369" unicode="." d="M283 212v-212h-198v212h198z"/>
<glyph vert-adv-y="1731" glyph-name="slash" horiz-adv-x="760" unicode="/" d="M574 1365h145l-547 -1502h-145z"/>
<glyph vert-adv-y="1731" glyph-name="zero" horiz-adv-x="778" unicode="0" d="M282 987v-609q0 -119 15 -158q22 -59 92 -59t93 59q14 39 14 158v609q0 119 -14 158q-22 59 -93 59q-70 0 -92 -59q-15 -39 -15 -158zM691 984v-603q0 -139 -22 -202q-35 -103 -125 -157q-70 -42 -155 -42q-153 0 -239 119q-45 63 -55 138q-8 62 -8 144v603q0 139 22 202 q35 103 125 157q70 42 155 42q153 0 239 -119q45 -63 55 -138q8 -62 8 -144z"/>
<glyph vert-adv-y="1731" glyph-name="one" horiz-adv-x="778" unicode="1" d="M517 1365v-1365h-195v1072h-169v127q66 19 134 69q58 45 99 97h131z"/>
<glyph vert-adv-y="1731" glyph-name="two" horiz-adv-x="778" unicode="2" d="M672 181v-181h-599v187q170 246 254 391q167 290 167 483q0 143 -101 143q-80 0 -106 -93q-11 -40 -11 -153h-191q-1 31 -1 49q0 169 68 264q82 114 246 114q121 0 198 -73q96 -89 96 -259q0 -136 -72 -305q-68 -158 -202 -365q-36 -56 -135 -202h389z"/>
<glyph vert-adv-y="1731" glyph-name="three" horiz-adv-x="778" unicode="3" d="M289 620v181q112 6 147 42q40 41 40 169q0 93 -19 139q-21 53 -75 53q-75 0 -89 -94q-4 -32 -4 -116h-188v30q0 170 78 267q77 94 208 94q132 0 203 -98q70 -97 70 -274q0 -137 -39 -217q-23 -49 -81 -86q70 -38 98 -89q44 -82 44 -243q0 -197 -70 -296 q-73 -102 -226 -102q-150 0 -226 96t-76 266q0 16 1 48h191q-1 -30 -1 -45q0 -184 108 -184q62 0 88 61q20 49 20 168q0 97 -16 138q-26 69 -99 86q-27 6 -87 6z"/>
<glyph vert-adv-y="1731" glyph-name="four" horiz-adv-x="778" unicode="4" d="M402 515v511l-190 -511h190zM402 334h-356v183l348 848h196v-850h128v-181h-128v-334h-188v334z"/>
<glyph vert-adv-y="1731" glyph-name="five" horiz-adv-x="778" unicode="5" d="M640 1365v-181h-351l-11 -335q76 96 186 96q103 0 160 -76q38 -50 47 -112q10 -64 10 -148v-247q0 -142 -29 -211q-72 -171 -268 -171q-149 0 -228 100q-72 92 -72 274v32h195q0 -109 12 -148q23 -77 95 -77q59 0 82 50q18 39 18 145v219q0 113 -13 145q-19 44 -77 44 q-51 0 -81 -36q-20 -24 -37 -75l-179 12l22 700h519z"/>
<glyph vert-adv-y="1731" glyph-name="six" horiz-adv-x="778" unicode="6" d="M285 566v-227q0 -86 19 -125q26 -53 89 -53q61 0 87 52q19 40 19 128v182q0 78 -18 107q-22 37 -69 37q-87 0 -127 -101zM681 1001h-195v47q0 156 -100 156q-59 0 -82 -51q-19 -40 -19 -132v-277q76 96 186 96q85 0 141 -46q82 -68 82 -238v-188q0 -140 -27 -205 q-39 -96 -128 -146q-67 -37 -147 -37q-144 0 -230 106q-49 62 -61 134q-11 64 -11 148v621q0 158 30 225q44 96 135 141q60 30 132 30q144 0 228 -110q66 -87 66 -236v-38z"/>
<glyph vert-adv-y="1731" glyph-name="seven" horiz-adv-x="778" unicode="7" d="M87 1365h577v-139l-254 -1226h-196l252 1184h-379v181z"/>
<glyph vert-adv-y="1731" glyph-name="eight" horiz-adv-x="778" unicode="8" d="M387 617q-58 0 -81 -52q-22 -48 -22 -176q0 -127 22 -176q23 -52 83 -52t83 52q22 49 22 171q0 134 -22 181q-24 52 -85 52zM387 1204q-99 0 -99 -194q0 -98 24 -147q23 -46 77 -46q101 0 101 192q0 102 -24 149q-24 46 -79 46zM553 725q66 -39 93 -88q46 -85 46 -242 q0 -207 -76 -309q-79 -106 -227 -106t-227 106q-76 102 -76 309q0 157 46 242q27 50 93 88q-54 45 -79 93q-42 80 -42 209q0 186 83 275q77 83 202 83t202 -83q83 -89 83 -275q0 -129 -42 -209q-25 -48 -79 -93z"/>
<glyph vert-adv-y="1731" glyph-name="nine" horiz-adv-x="778" unicode="9" d="M492 799v227q0 86 -19 125q-25 53 -89 53q-61 0 -87 -52q-19 -40 -19 -128v-182q0 -78 18 -107q22 -37 69 -37q87 0 127 101zM97 365h194v-47q0 -157 100 -157q59 0 82 51q19 40 19 132v278q-76 -97 -186 -97q-85 0 -141 47q-82 68 -82 238v187q0 140 27 205 q39 96 128 145q67 38 147 38q144 0 230 -106q49 -61 61 -134q11 -64 11 -148v-620q0 -159 -30 -226q-44 -96 -135 -141q-60 -30 -132 -30q-144 0 -228 110q-66 88 -66 237q0 12 1 38z"/>
<glyph vert-adv-y="1731" glyph-name="colon" horiz-adv-x="369" unicode=":" d="M283 1017v-212h-198v212h198zM283 212v-212h-198v212h198z"/>
<glyph vert-adv-y="1731" glyph-name="semicolon" horiz-adv-x="369" unicode=";" d="M283 212v-212l-107 -237h-91l72 237h-72v212h198zM283 1017v-212h-198v212h198z"/>
<glyph vert-adv-y="1731" glyph-name="less" d="M955 1204v-199l-674 -318l674 -319v-198l-887 432v171z" unicode="&lt;"/>
<glyph vert-adv-y="1731" glyph-name="equal" horiz-adv-x="778" unicode="=" d="M691 619v-159h-604v159h604zM691 933v-159h-604v159h604z"/>
<glyph vert-adv-y="1731" glyph-name="greater" d="M69 170v200l674 318l-673 318v198l886 -431v-171z" unicode="&gt;"/>
<glyph vert-adv-y="1731" glyph-name="question" horiz-adv-x="708" unicode="?" d="M437 212v-212h-198v212h198zM417 403h-165v44q0 155 26 266q23 99 119 271q45 79 45 131q0 97 -75 97q-52 0 -89 -54q-21 -31 -44 -92l-166 65q37 120 95 175q78 73 202 73q109 0 178 -57q83 -67 83 -196q0 -81 -36 -163q-16 -37 -75 -137q-58 -99 -79 -179 q-19 -76 -19 -186v-21v-37z"/>
<glyph vert-adv-y="1731" glyph-name="at" horiz-adv-x="920" unicode="@" d="M550 870v-313q0 -46 14 -60q16 -18 48 -18q33 0 50 18q13 14 13 60v313q0 46 -13 60q-17 17 -49 17q-33 0 -49 -17q-14 -14 -14 -60zM839 362h-125l-24 56q-64 -76 -143 -76t-113 32q-48 44 -48 139v384q0 91 43 137q47 50 127 50q63 0 119 -53v44q0 76 -48 115 q-64 52 -157 52t-154 -54q-43 -38 -51 -91q-5 -31 -5 -83v-638q0 -115 38 -168q60 -85 182 -85q109 0 194 72l99 -95q-111 -121 -294 -121q-110 0 -205 43q-88 40 -134 125q-44 84 -44 185v713q0 154 86 240q101 100 287 100q146 0 242 -65q128 -87 128 -264v-694z"/>
<glyph vert-adv-y="1731" glyph-name="A" horiz-adv-x="829" unicode="A" d="M493 492l-82 544l-78 -544h160zM525 301h-221l-46 -301h-203l223 1365h267l237 -1365h-210z"/>
<glyph vert-adv-y="1731" glyph-name="B" horiz-adv-x="822" unicode="B" d="M296 191h76q82 0 117 39q45 49 45 159q0 137 -64 191q-36 30 -123 30h-51v-419zM296 801h43q84 0 120 34q56 52 56 169q0 170 -142 170h-77v-373zM91 0v1365h284q139 0 218 -57q123 -88 123 -296q0 -128 -52 -212q-30 -50 -91 -93q67 -35 99 -79q67 -94 67 -260 q0 -205 -100 -299q-51 -49 -117 -60q-51 -9 -128 -9h-303z"/>
<glyph vert-adv-y="1731" glyph-name="C" horiz-adv-x="795" unicode="C" d="M727 913h-207q-1 134 -5 174q-6 51 -37 80q-30 27 -72 27q-82 0 -105 -90q-10 -38 -10 -205v-433q0 -178 13 -218q27 -77 101 -77q62 0 90 53q20 38 23 146q2 86 2 114h207v-86q0 -115 -14 -171q-29 -119 -114 -185q-80 -62 -192 -62q-152 0 -239 108q-61 75 -72 160 q-10 75 -10 204v461q0 202 28 272q43 109 138 161q70 39 156 39q127 0 214 -78q78 -69 98 -182q7 -43 7 -131v-81z"/>
<glyph vert-adv-y="1731" glyph-name="D" horiz-adv-x="814" unicode="D" d="M296 191h64q87 1 127 54q25 34 31 82q4 38 4 97v518q0 100 -12 131q-31 100 -150 101h-64v-983zM91 0v1365h291q345 0 345 -379v-7v-593v-7q0 -379 -345 -379h-291z"/>
<glyph vert-adv-y="1731" glyph-name="E" horiz-adv-x="714" unicode="E" d="M649 1365v-191h-353v-371h253v-191h-253v-421h353v-191h-558v1365h558z"/>
<glyph vert-adv-y="1731" glyph-name="F" horiz-adv-x="677" unicode="F" d="M642 1365v-191h-346v-371h251v-191h-251v-612h-205v1365h551z"/>
<glyph vert-adv-y="1731" glyph-name="G" horiz-adv-x="817" unicode="G" d="M728 691v-691h-100l-38 108q-36 -57 -70 -83q-58 -45 -147 -45q-155 0 -225 117q-41 70 -52 158q-10 82 -10 180v478q0 202 28 272q43 109 138 161q70 39 157 39q127 0 215 -78q77 -68 97 -182q8 -45 8 -123q0 -24 -1 -82h-207q0 121 -5 167q-6 51 -37 80q-30 27 -72 27 q-84 0 -106 -90q-10 -39 -10 -205v-434q0 -172 15 -217q24 -77 102 -77q83 0 105 88q10 42 10 206v55h-125v171h330z"/>
<glyph vert-adv-y="1731" glyph-name="H" horiz-adv-x="820" unicode="H" d="M523 616h-227v-616h-205v1365h205v-558h227v558h205v-1365h-205v616z"/>
<glyph vert-adv-y="1731" glyph-name="I" horiz-adv-x="388" unicode="I" d="M296 1365v-1365h-205v1365h205z"/>
<glyph vert-adv-y="1731" glyph-name="J" horiz-adv-x="473" unicode="J" d="M176 1365h205v-934q-1 -196 -19 -253q-32 -115 -119 -154q-52 -24 -124 -24h-99v191h49q60 1 84 44q23 46 23 162v968z"/>
<glyph vert-adv-y="1731" glyph-name="K" horiz-adv-x="817" unicode="K" d="M91 1365h205v-546l241 546h215l-236 -475l266 -890h-217l-175 634l-94 -189v-445h-205v1365z"/>
<glyph vert-adv-y="1731" glyph-name="L" horiz-adv-x="664" unicode="L" d="M636 191v-191h-545v1365h205v-1174h340z"/>
<glyph vert-adv-y="1731" glyph-name="M" horiz-adv-x="1060" unicode="M" d="M968 0h-191v944l-197 -944h-91l-207 944v-944h-191v1365h276l168 -832l156 832h277v-1365z"/>
<glyph vert-adv-y="1731" glyph-name="N" horiz-adv-x="861" unicode="N" d="M769 0h-191l-296 843v-843h-191v1365h208l279 -810v810h191v-1365z"/>
<glyph vert-adv-y="1731" glyph-name="O" horiz-adv-x="814" unicode="O" d="M291 899v-433q0 -178 14 -218q26 -77 102 -77q83 0 106 90q10 38 10 205v433q0 178 -13 218q-27 77 -103 77q-83 0 -106 -90q-10 -39 -10 -205zM728 920v-475q0 -192 -28 -265q-42 -109 -138 -162q-70 -38 -155 -38q-152 0 -239 108q-59 73 -71 160q-11 79 -11 197v475 q0 192 28 266q42 108 138 161q70 38 155 38q152 0 240 -108q59 -73 70 -160q11 -79 11 -197z"/>
<glyph vert-adv-y="1731" glyph-name="P" horiz-adv-x="790" unicode="P" d="M296 755h66q94 0 128 40q26 30 32 74q5 43 5 96q0 90 -13 127q-19 55 -68 72q-28 10 -84 10h-66v-419zM296 564v-564h-205v1365h288q120 0 183 -26q105 -43 144 -160q26 -79 26 -214q0 -163 -39 -246q-50 -108 -159 -139q-56 -16 -155 -16h-83z"/>
<glyph vert-adv-y="1731" glyph-name="Q" horiz-adv-x="814" unicode="Q" d="M291 899v-433q0 -178 14 -218q26 -77 102 -77q83 0 106 90q10 38 10 205v433q0 178 -13 218q-27 77 -103 77q-83 0 -106 -90q-10 -39 -10 -205zM771 98v-202q-88 1 -138 25q-54 27 -90 87q-66 -28 -135 -28q-153 0 -240 108q-59 73 -71 160q-11 79 -11 197v475 q0 192 28 266q42 108 138 161q70 38 155 38q152 0 240 -108q59 -73 70 -160q11 -79 11 -197v-475q-1 -193 -23 -251q-9 -27 -22 -52q29 -35 88 -44z"/>
<glyph vert-adv-y="1731" glyph-name="R" horiz-adv-x="796" unicode="R" d="M296 761h66q68 0 93 17q61 41 61 189q0 120 -40 171q-15 18 -32 26q-25 10 -82 10h-66v-413zM296 570v-570h-205v1365h287q162 0 241 -76q102 -99 102 -319q0 -152 -46 -242q-29 -56 -92 -103l158 -625h-218l-129 570h-98z"/>
<glyph vert-adv-y="1731" glyph-name="S" horiz-adv-x="760" unicode="S" d="M697 1059l-198 -30q-8 78 -25 109q-29 56 -94 56q-51 0 -82 -34q-34 -37 -34 -101q0 -68 38 -129q32 -52 145 -154q150 -137 201 -216q64 -99 64 -231q0 -146 -81 -241q-92 -108 -244 -108q-187 0 -284 157q-52 84 -55 212l195 33q9 -211 146 -211q59 0 92 42 q33 41 33 106q0 78 -53 148q-36 47 -160 161q-121 112 -173 198q-62 102 -62 221q0 164 100 257q86 81 221 81q167 0 251 -129q44 -68 59 -197z"/>
<glyph vert-adv-y="1731" glyph-name="T" horiz-adv-x="671" unicode="T" d="M436 1174v-1174h-205v1174h-217v191h644v-191h-222z"/>
<glyph vert-adv-y="1731" glyph-name="U" horiz-adv-x="825" unicode="U" d="M528 1365h205v-920q0 -192 -28 -265q-42 -109 -138 -162q-70 -38 -155 -38q-152 0 -239 108q-59 73 -71 160q-11 79 -11 197v920h205v-899q0 -178 14 -218q26 -77 102 -77q83 0 106 90q10 38 10 205v899z"/>
<glyph vert-adv-y="1731" glyph-name="V" horiz-adv-x="776" unicode="V" d="M510 0h-214l-262 1365h209l158 -874l139 874h202z"/>
<glyph vert-adv-y="1731" glyph-name="W" horiz-adv-x="1127" unicode="W" d="M878 0h-178l-141 827l-135 -827h-178l-205 1365h205l102 -817l129 817h170l136 -817l105 817h198z"/>
<glyph vert-adv-y="1731" glyph-name="X" horiz-adv-x="806" unicode="X" d="M506 701l266 -701h-215l-161 440l-150 -440h-212l257 701l-247 664h215l142 -402l133 402h212z"/>
<glyph vert-adv-y="1731" glyph-name="Y" horiz-adv-x="761" unicode="Y" d="M488 552v-552h-205v552l-256 813h214l145 -536l141 536h207z"/>
<glyph vert-adv-y="1731" glyph-name="Z" horiz-adv-x="721" unicode="Z" d="M667 191v-191h-612v191l395 983h-365v191h582v-191l-393 -983h393z"/>
<glyph vert-adv-y="1731" glyph-name="bracketleft" horiz-adv-x="601" unicode="[" d="M471 1365v-177h-148v-1205h148v-177h-328v1559h328z"/>
<glyph vert-adv-y="1731" glyph-name="backslash" horiz-adv-x="760" unicode="\" d="M186 1365l547 -1502h-145l-547 1502h145z"/>
<glyph vert-adv-y="1731" glyph-name="bracketright" horiz-adv-x="601" unicode="]" d="M130 -194v177h148v1205h-148v177h328v-1559h-328z"/>
<glyph vert-adv-y="1731" glyph-name="asciicircum" d="M239 753h-184l344 617h225l345 -617h-185l-273 480z" unicode="^"/>
<glyph vert-adv-y="1731" glyph-name="underscore" d="M0 -138h1024v-126h-1024v126z" unicode="_"/>
<glyph vert-adv-y="1731" glyph-name="grave" d="M597 1188h-144l-148 164h198z" unicode="`"/>
<glyph vert-adv-y="1731" glyph-name="a" horiz-adv-x="709" unicode="a" d="M437 519q-90 -57 -130 -108q-54 -67 -54 -151q0 -107 63 -107q65 0 121 95v271zM640 0h-185q-8 55 -13 116q-112 -130 -214 -130q-76 0 -120 64q-46 67 -46 178q0 106 50 184q55 85 204 177q45 28 121 71v65q0 78 -13 104q-17 35 -63 35q-49 0 -70 -48q-12 -28 -15 -91 h-188q8 124 60 197q78 109 230 109q129 0 193 -87q37 -51 44 -110q6 -51 6 -130v-336q0 -187 3 -233q4 -64 16 -135z"/>
<glyph vert-adv-y="1731" glyph-name="b" horiz-adv-x="692" unicode="b" d="M263 198q46 -44 93 -44q48 0 66 37q14 28 14 113v409q0 86 -14 113q-18 37 -66 37q-46 0 -93 -44v-621zM263 1365v-446q94 112 192 112q92 0 132 -81q24 -48 28 -102q5 -57 5 -137v-405q0 -132 -11 -179q-34 -141 -154 -141q-98 0 -192 112v-98h-184v1365h184z"/>
<glyph vert-adv-y="1731" glyph-name="c" horiz-adv-x="669" unicode="c" d="M614 666h-184q1 29 1 42q0 71 -7 100q-14 56 -79 56q-89 0 -89 -141v-429q0 -141 88 -141q66 0 80 62q7 32 7 109q0 15 -1 47h184q1 -51 1 -61q0 -94 -14 -141q-28 -92 -107 -142q-65 -41 -144 -41q-88 0 -162 50q-78 54 -102 149q-14 54 -14 146v356q0 162 58 239 q39 52 105 80q56 25 117 25q93 0 163 -53q71 -53 91 -144q9 -43 9 -118q0 -13 -1 -50z"/>
<glyph vert-adv-y="1731" glyph-name="d" horiz-adv-x="692" unicode="d" d="M429 819q-47 44 -93 44q-48 0 -66 -37q-14 -27 -14 -113v-409q0 -85 14 -113q18 -37 66 -37q47 0 93 44v621zM429 1365h184v-1365h-184v98q-94 -112 -192 -112q-92 0 -132 81q-24 49 -28 102q-5 56 -5 137v405q0 132 11 179q34 141 154 141q98 0 192 -112v446z"/>
<glyph vert-adv-y="1731" glyph-name="e" horiz-adv-x="697" unicode="e" d="M440 629v94q0 141 -92 141t-92 -141v-94h184zM624 475h-368v-180q0 -142 94 -142q58 0 78 48q10 25 10 105q0 14 -1 46h187q1 -49 1 -63q0 -85 -15 -129q-28 -88 -110 -135q-67 -39 -146 -39q-91 0 -165 50q-79 53 -103 149q-14 55 -14 146v355q0 163 57 240 q39 52 103 80q56 25 118 25q140 0 217 -105q39 -53 49 -120q8 -54 8 -120v-211z"/>
<glyph vert-adv-y="1731" glyph-name="f" horiz-adv-x="459" unicode="f" d="M433 1017v-167h-119v-850h-184v850h-115v167h115v118q0 90 15 127q49 117 206 117q56 0 101 -15v-157q-30 5 -49 5q-49 0 -71 -33q-18 -26 -18 -97v-65h119z"/>
<glyph vert-adv-y="1731" glyph-name="g" horiz-adv-x="695" unicode="g" d="M295 -27l-32 1l12 -12q-33 -24 -38 -29q-20 -28 -20 -61q0 -37 40 -65q37 -26 104 -26q69 0 117 25q52 28 52 80q0 46 -41 64q-24 11 -194 23zM239 743v-198q0 -67 17 -94q23 -36 68 -36t68 36q17 27 17 94v198q0 68 -17 94q-22 37 -68 37t-68 -37q-17 -26 -17 -94z M682 1026v-157h-8q-60 0 -102 -41q4 -33 4 -106v-172q0 -93 -19 -142q-57 -150 -228 -150q-18 0 -49 2q-44 -34 -44 -69q0 -16 9 -25q22 -22 106 -27q121 -7 171 -18q171 -36 171 -215q0 -151 -123 -221q-86 -48 -237 -48q-133 0 -216 40q-48 23 -75 68q-19 32 -19 71 q0 67 55 111q35 27 111 64q-117 49 -117 131q0 81 117 166q-50 34 -79 81q-37 65 -38 181v188q0 293 258 293q135 0 211 -114q52 101 141 109z"/>
<glyph vert-adv-y="1731" glyph-name="h" horiz-adv-x="690" unicode="h" d="M263 1365v-458q60 65 102 92q51 32 110 32q69 0 102 -47q24 -34 29 -76q4 -43 4 -116v-792h-184v749q0 66 -6 84q-9 30 -40 30q-55 0 -117 -85v-778h-184v1365h184z"/>
<glyph vert-adv-y="1731" glyph-name="i" horiz-adv-x="343" unicode="i" d="M263 1365v-184h-184v184h184zM263 1017v-1017h-184v1017h184z"/>
<glyph vert-adv-y="1731" glyph-name="j" horiz-adv-x="359" unicode="j" d="M280 1365v-184h-184v184h184zM96 1017h184v-1043q0 -121 -9 -164q-34 -158 -209 -158q-43 0 -96 13v177q27 -6 43 -6q46 0 68 30q19 26 19 85v1066z"/>
<glyph vert-adv-y="1731" glyph-name="k" horiz-adv-x="692" unicode="k" d="M263 1365v-738l189 390h187l-185 -340l201 -677h-181l-130 473l-81 -148v-325h-184v1365h184z"/>
<glyph vert-adv-y="1731" glyph-name="l" horiz-adv-x="343" unicode="l" d="M263 1365v-1365h-184v1365h184z"/>
<glyph vert-adv-y="1731" glyph-name="m" horiz-adv-x="1037" unicode="m" d="M263 1017v-110q60 65 102 92q51 32 110 32q114 0 131 -124q62 66 104 92q53 32 111 32q70 0 103 -47q24 -34 29 -76q4 -43 4 -116v-792h-184v749q0 67 -5 84q-10 30 -41 30q-55 0 -117 -85v-778h-184v749q0 66 -6 84q-9 30 -40 30q-55 0 -117 -85v-778h-184v1017h184z "/>
<glyph vert-adv-y="1731" glyph-name="n" horiz-adv-x="690" unicode="n" d="M263 1017v-110q60 65 102 92q51 32 110 32q69 0 102 -47q24 -34 29 -76q4 -43 4 -116v-792h-184v749q0 66 -6 84q-9 30 -40 30q-55 0 -117 -85v-778h-184v1017h184z"/>
<glyph vert-adv-y="1731" glyph-name="o" horiz-adv-x="689" unicode="o" d="M256 723v-429q0 -141 88 -141t88 141v429q0 141 -88 141t-88 -141zM616 686v-355q0 -163 -57 -240q-37 -52 -101 -80q-55 -25 -114 -25q-87 0 -159 50q-76 54 -100 149q-13 54 -13 146v355q0 163 57 240q37 52 101 80q55 25 114 25q87 0 159 -50q76 -54 100 -149 q13 -54 13 -146z"/>
<glyph vert-adv-y="1731" glyph-name="p" horiz-adv-x="692" unicode="p" d="M263 198q46 -44 93 -44q48 0 66 37q14 27 14 113v409q0 85 -14 113q-18 37 -66 37q-46 0 -93 -44v-621zM79 1017h184v-98q94 112 192 112q92 0 132 -81q24 -49 28 -102q5 -57 5 -137v-405q0 -132 -11 -179q-33 -141 -154 -141q-98 0 -192 112v-446h-184v1365z"/>
<glyph vert-adv-y="1731" glyph-name="q" horiz-adv-x="692" unicode="q" d="M429 819q-47 44 -93 44q-48 0 -66 -37q-14 -28 -14 -113v-409q0 -86 14 -113q18 -37 66 -37q47 0 93 44v621zM613 1017v-1365h-184v446q-94 -112 -192 -112q-92 0 -132 81q-24 48 -28 102q-5 56 -5 137v405q0 132 11 179q34 141 154 141q98 0 192 -112v98h184z"/>
<glyph vert-adv-y="1731" glyph-name="r" horiz-adv-x="484" unicode="r" d="M79 1017h184v-146q53 91 106 126q52 32 115 34v-203q-35 12 -64 12q-72 0 -114 -51q-27 -33 -34 -70q-9 -44 -9 -104v-615h-184v1017z"/>
<glyph vert-adv-y="1731" glyph-name="s" horiz-adv-x="641" unicode="s" d="M596 778l-174 -41q-13 62 -27 85q-26 42 -76 42q-42 0 -66 -28q-20 -25 -20 -63q0 -42 31 -81q26 -33 104 -92q112 -85 162 -139q76 -83 76 -208q0 -116 -65 -184q-79 -83 -213 -83q-252 0 -298 292l174 41q15 -74 30 -102q35 -64 97 -64q36 0 61 21q29 25 29 74 q0 48 -30 85q-25 32 -96 86q-140 107 -193 177q-53 72 -53 170q0 131 88 203q77 62 188 62q233 0 271 -253z"/>
<glyph vert-adv-y="1731" glyph-name="t" horiz-adv-x="500" unicode="t" d="M481 1017v-167h-152v-507q0 -103 18 -135q21 -38 79 -38q24 0 55 8v-175q-73 -17 -130 -17q-107 0 -162 75q-31 43 -38 91q-6 45 -6 121v577h-114v167h114v280h184v-280h152z"/>
<glyph vert-adv-y="1731" glyph-name="u" horiz-adv-x="690" unicode="u" d="M610 1017v-1017h-184v110q-60 -66 -102 -92q-52 -32 -110 -32q-68 0 -102 47q-24 34 -29 76q-4 43 -4 116v792h184v-749q0 -67 6 -84q9 -30 40 -30q55 0 117 85v778h184z"/>
<glyph vert-adv-y="1731" glyph-name="v" horiz-adv-x="643" unicode="v" d="M417 0h-173l-217 1017h189l113 -630l103 630h183z"/>
<glyph vert-adv-y="1731" glyph-name="w" horiz-adv-x="960" unicode="w" d="M752 0h-163l-106 580l-100 -580h-163l-186 1017h174l98 -593l102 593h145l112 -580l93 580h168z"/>
<glyph vert-adv-y="1731" glyph-name="x" horiz-adv-x="661" unicode="x" d="M425 535l206 -535h-189l-117 321l-110 -321h-185l198 535l-198 482h194l103 -279l98 279h186z"/>
<glyph vert-adv-y="1731" glyph-name="y" horiz-adv-x="655" unicode="y" d="M439 1017h182l-207 -1043q-33 -163 -49 -200q-39 -89 -126 -119q-51 -17 -127 -17q-33 0 -65 5v180q25 -1 40 -1q84 0 122 65q14 25 32 101l-207 1029h185l111 -655z"/>
<glyph vert-adv-y="1731" glyph-name="z" horiz-adv-x="632" unicode="z" d="M571 167v-167h-515v156l312 694h-286v167h489v-167l-304 -683h304z"/>
<glyph vert-adv-y="1731" glyph-name="braceleft" horiz-adv-x="642" unicode="{" d="M263 584q66 -36 95 -103q19 -46 19 -137v-178q3 -100 20 -124q35 -66 176 -66v-170q-179 0 -232 16q-101 32 -132 140q-17 55 -17 146v210q0 103 -34 143q-33 38 -83 50v155q53 13 86 53q29 36 31 131v236v8q0 146 71 209q47 45 119 55q57 7 191 7v-179q-91 -1 -142 -29 q-37 -22 -46 -67q-8 -28 -8 -86v-184q-1 -110 -31 -161q-24 -42 -83 -75z"/>
<glyph vert-adv-y="1731" glyph-name="bar" d="M412 1365h201v-1706h-201v1706z" unicode="|"/>
<glyph vert-adv-y="1731" glyph-name="braceright" horiz-adv-x="642" unicode="}" d="M379 584q-63 35 -89 86q-25 52 -25 150v184q-2 88 -19 115q-35 66 -177 67v179q178 0 230 -16q151 -50 151 -258v-5v-236q2 -95 31 -131q33 -40 86 -53v-155q-50 -12 -83 -50q-34 -41 -34 -143v-210q0 -166 -68 -236q-47 -49 -120 -59q-59 -6 -193 -7v170q89 0 140 26 q20 12 36 40q17 24 20 124v178q1 101 23 146q29 60 91 94z"/>
<glyph vert-adv-y="1731" glyph-name="asciitilde" horiz-adv-x="1365" unicode="~" d="M295 1172l-103 83q108 244 285 244q75 0 235 -77q97 -47 126 -55q31 -9 56 -9q98 0 178 145l103 -83q-104 -240 -303 -240q-32 0 -74 13q-40 13 -166 74q-106 52 -166 52q-90 0 -171 -147z"/>
<glyph vert-adv-y="1731" glyph-name="exclamdown" horiz-adv-x="457" unicode="¡" d="M130 805v212h198v-212h-198zM165 614h128l42 -962h-212z"/>
<glyph vert-adv-y="1731" glyph-name="cent" horiz-adv-x="778" unicode="¢" d="M339 1434h109v-220q80 -17 133 -66q53 -50 70 -128q10 -42 10 -114q0 -14 -1 -53h-184q1 30 1 43q0 69 -7 98q-14 56 -79 56q-89 0 -89 -140v-429q0 -140 88 -140q66 0 80 62q7 32 7 107q0 15 -1 48h184q1 -51 1 -64q0 -103 -22.5 -161.5t-77.5 -102.5q-48 -38 -113 -52 v-246h-109v247q-71 16 -126 61q-61 50 -81 132q-14 54 -14 146v356q1 132 31 194q43 92 149 132q18 7 41 12v222z"/>
<glyph vert-adv-y="1731" glyph-name="sterling" horiz-adv-x="778" unicode="£" d="M583 723v-125h-176q25 -96 25 -168q0 -96 -54 -190q105 -46 127 -46q41 0 61 64q14 44 14 104l173 -8q0 -138 -39 -227q-62 -142 -190 -142q-65 0 -196 66q-53 27 -79 27q-58 0 -127 -98l-118 126q94 146 210 159q39 77 39 158q0 69 -33 175h-174v125h134q-28 78 -45 130 q-36 108 -36 194q0 171 99 262q83 76 212 76q191 0 266 -169q34 -78 34 -208v-8l-191 -5q-1 87 -16 129q-27 73 -94 73q-49 0 -80 -36q-32 -39 -32 -108q0 -60 21 -147q5 -22 42 -147l10 -36h213z"/>
<glyph vert-adv-y="1731" glyph-name="currency" horiz-adv-x="853" unicode="¤" d="M422 837q-57 0 -101 -42q-52 -48 -52 -113q0 -58 38 -103q46 -55 118 -55q61 0 107 44q50 46 50 111q0 64 -43 108q-48 50 -117 50zM685 541l76 -76l-117 -117l-76 76q-72 -36 -141 -36q-73 0 -145 38l-80 -81l-113 113l81 80q-38 69 -38 144q0 71 36 141l-76 77l117 117 l76 -76q72 36 143 36t142 -38l81 81l113 -112l-81 -81q37 -69 37 -145q0 -71 -35 -141z"/>
<glyph vert-adv-y="1731" glyph-name="yen" horiz-adv-x="778" unicode="¥" d="M492 571v-571h-195v571h-185v125h147l-205 669h203l138 -536l134 536h196l-196 -669h147v-125h-184z"/>
<glyph vert-adv-y="1731" glyph-name="brokenbar" d="M412 314h201v-655h-201v655zM412 1365h201v-694h-201v694z" unicode="¦"/>
<glyph vert-adv-y="1731" glyph-name="section" horiz-adv-x="797" unicode="§" d="M347 829q-81 -36 -81 -87q0 -33 40 -81l156 -185q69 30 69 98q0 35 -50 95zM658 1069h-185q1 28 1 45q0 105 -73 105q-27 0 -45 -16.5t-18 -40.5q0 -30 47 -82l259 -317q71 -86 71 -187q0 -159 -153 -225l20 -25q24 -31 43 -87q12 -37 12 -77q0 -107 -71 -171 q-67 -60 -178 -60q-94 0 -163 44q-103 66 -103 219q0 16 2 41h188q-3 -21 -3 -37q0 -31 10 -55q19 -45 69 -45q35 0 53 26q12 17 12 40q0 28 -37 72l-220 266q-60 73 -84 116q-30 57 -30 116q0 146 172 215l-20 23q-81 96 -81 193q0 90 59 150q70 71 193 71q106 0 173 -59 q82 -70 82 -200q0 -19 -2 -58z"/>
<glyph vert-adv-y="1731" glyph-name="dieresis" d="M744 1365v-182h-177v182h177zM457 1365v-182h-177v182h177z" unicode="¨"/>
<glyph vert-adv-y="1731" glyph-name="copyright" horiz-adv-x="1587" unicode="©" d="M787 1284q-160 0 -302 -88q-143 -89 -219 -240q-65 -129 -65 -273q0 -250 175 -427q174 -175 418 -175t417 176q174 176 174 424q0 171 -87 316q-86 143 -235 222q-125 65 -276 65zM804 1390q189 0 358 -104q170 -105 260 -282q77 -152 77 -322q0 -199 -104 -369 q-103 -170 -280 -260q-152 -78 -321 -78q-198 0 -368 104t-261 282q-78 151 -78 320q0 201 104 372q102 168 283 260q150 77 330 77zM980 809h-135v27q0 80 -7 100q-14 39 -54 39q-43 0 -55 -48q-6 -22 -6 -120v-256q0 -103 8 -126q13 -41 53 -41q43 0 55 48q6 23 6 115v22 h135q1 -47 1 -65q0 -93 -28 -148q-51 -98 -168 -98q-93 0 -147 66q-36 46 -43 98q-6 45 -6 121v273q0 121 17 163q26 66 84 98q43 24 96 24q115 0 167 -92q28 -50 28 -139q0 -17 -1 -61z"/>
<glyph vert-adv-y="1731" glyph-name="ordfeminine" horiz-adv-x="475" unicode="ª" d="M280 846q-98 -61 -98 -140q0 -56 31 -56q34 0 67 51v145zM424 546h-132q-5 32 -7 57q-65 -65 -126 -65q-52 0 -81 40q-31 41 -31 109q0 66 33 114q43 62 200 145v35q0 37 -3 48q-8 27 -36 27q-42 0 -45 -82h-133q5 82 40 127q51 67 149 67q83 0 126 -53q24 -31 29 -69 q4 -31 4 -77v-199q0 -153 13 -224z"/>
<glyph vert-adv-y="1731" glyph-name="guillemotleft" horiz-adv-x="630" unicode="«" d="M266 218l-184 154v293l184 154v-231l-63 -69l63 -70v-231zM548 205l-184 167v293l184 168v-245l-63 -69l63 -70v-244z"/>
<glyph vert-adv-y="1731" glyph-name="logicalnot" d="M760 0v399h-692v176h887v-575h-195z" unicode="¬"/>
<glyph vert-adv-y="1731" glyph-name="registered" horiz-adv-x="1587" unicode="®" d="M787 1284q-160 0 -302 -88q-143 -89 -219 -240q-65 -129 -65 -274q0 -249 175 -426q173 -175 417 -175q245 0 418 176q174 176 174 424q0 171 -87 316q-85 143 -236 222q-124 65 -275 65zM803 1390q190 0 359 -104q170 -105 260 -282q77 -152 77 -322q0 -199 -104 -369 q-103 -170 -280 -260q-152 -78 -321 -78q-199 0 -368 104q-170 104 -261 282q-78 151 -78 320q0 201 104 372q102 168 283 261q150 76 329 76zM740 744h32q50 0 65 22q20 29 20 93q0 68 -22 96q-16 19 -63 19h-32v-230zM740 618v-337h-134v819h176q98 0 147 -47 q62 -59 62 -193q0 -144 -80 -205l94 -374h-143l-77 337h-45z"/>
<glyph vert-adv-y="1731" glyph-name="macron" d="M0 1760h1024v-123h-1024v123z" unicode="¯"/>
<glyph vert-adv-y="1731" glyph-name="degree" horiz-adv-x="833" unicode="°" d="M413 1239q-57 0 -101 -41q-52 -49 -52 -114q0 -58 38 -103q46 -55 118 -55q61 0 107 44q50 46 50 111q0 64 -43 108q-48 50 -117 50zM421 1379q123 0 212 -94q78 -83 78 -200q0 -125 -89 -212q-86 -83 -204 -83q-131 0 -219 96q-76 84 -76 196q0 92 51 168q44 67 121 102 q60 27 126 27z"/>
<glyph vert-adv-y="1731" glyph-name="plusminus" horiz-adv-x="778" unicode="±" d="M691 765v-159h-219v-215h-166v215h-219v159h219v215h166v-215h219zM691 279v-159h-604v159h604z"/>
<glyph vert-adv-y="1731" glyph-name="uni00B2" horiz-adv-x="533" unicode="²" d="M458 667v-120h-391v119q108 146 161 232q105 169 105 282q0 77 -57 77q-68 0 -68 -112q0 -10 1 -33h-134q-1 23 -1 36q0 102 44 159q54 70 161 70q79 0 129 -44q63 -56 63 -159q0 -120 -112 -304q-42 -69 -139 -203h238z"/>
<glyph vert-adv-y="1731" glyph-name="uni00B3" horiz-adv-x="533" unicode="³" d="M200 912v120q75 4 95 23q23 22 23 94q0 108 -53 108q-41 0 -48 -51q-3 -17 -3 -74h-132q0 107 32 161q50 84 155 84q86 0 133 -60q46 -58 46 -167q0 -133 -69 -178q36 -21 53 -50q29 -49 29 -144q0 -244 -193 -244q-97 0 -147 59q-50 58 -50 164q0 11 1 33h134 q-1 -21 -1 -31q0 -105 61 -105q35 0 49 32q12 27 12 96q0 71 -20 98q-22 32 -107 32z"/>
<glyph vert-adv-y="1731" glyph-name="acute" d="M414 1188l93 164h199l-148 -164h-144z" unicode="´"/>
<glyph vert-adv-y="1731" glyph-name="uni00B5" horiz-adv-x="690" unicode="µ" d="M426 1017h184v-1017h-184v82q-12 -42 -24 -60q-22 -36 -67 -36q-49 0 -72 61v-395h-184v1365h184v-758q0 -73 15 -98q21 -34 61 -34q61 0 87 82v808z"/>
<glyph vert-adv-y="1731" glyph-name="paragraph" horiz-adv-x="856" unicode="¶" d="M387 -205v859q-84 4 -161 56q-64 44 -103 120q-41 82 -41 176q0 124 66 221q95 138 280 138h353v-61h-82v-1509h-98v1509h-114v-1509h-100z"/>
<glyph vert-adv-y="1731" glyph-name="periodcentered" horiz-adv-x="369" unicode="·" d="M283 625v-212h-198v212h198z"/>
<glyph vert-adv-y="1731" glyph-name="cedilla" d="M592 -95v-139l-44 -114h-97l35 114h-55v139h161z" unicode="¸"/>
<glyph vert-adv-y="1731" glyph-name="uni00B9" horiz-adv-x="533" unicode="¹" d="M352 1365v-819h-136v633h-106v87q82 18 150 99h92z"/>
<glyph vert-adv-y="1731" glyph-name="ordmasculine" horiz-adv-x="463" unicode="º" d="M185 979v-253q0 -76 46 -76t46 76v253q0 77 -46 77t-46 -77zM408 958v-210q0 -99 -37 -146q-51 -64 -140 -64t-140 64q-37 47 -37 146v210q0 98 37 146q51 64 140 64t140 -64q37 -48 37 -146z"/>
<glyph vert-adv-y="1731" glyph-name="guillemotright" horiz-adv-x="630" unicode="»" d="M364 819l184 -154v-293l-184 -154v231l63 70l-63 69v231zM82 833l184 -168v-293l-184 -167v244l63 70l-63 69v245z"/>
<glyph vert-adv-y="1731" glyph-name="onequarter" horiz-adv-x="1242" unicode="¼" d="M981 313v293l-118 -293h118zM977 197h-225v116l222 506h135v-502h80v-120h-80v-197h-132v197zM341 -68l456 1502h103l-464 -1502h-95zM352 1365v-819h-136v633h-106v87q82 18 150 99h92z"/>
<glyph vert-adv-y="1731" glyph-name="onehalf" horiz-adv-x="1242" unicode="½" d="M1167 120v-120h-391v119q109 148 161 233q105 170 105 283q0 77 -57 77q-68 0 -68 -112q0 -11 1 -34h-134q-1 23 -1 36q0 102 44 160q54 70 161 70q79 0 129 -44q63 -56 63 -159q0 -121 -112 -306q-41 -67 -139 -203h238zM341 -68l456 1502h103l-464 -1502h-95zM352 1365 v-819h-136v633h-106v87q82 18 150 99h92z"/>
<glyph vert-adv-y="1731" glyph-name="threequarters" horiz-adv-x="1242" unicode="¾" d="M981 313v293l-118 -293h118zM977 197h-224v116l221 506h135v-502h80v-120h-80v-197h-132v197zM341 -68l456 1502h103l-464 -1502h-95zM200 912v120q75 4 95 23q23 22 23 94q0 108 -53 108q-41 0 -48 -51q-3 -17 -3 -74h-132q0 107 32 161q50 84 155 84q86 0 133 -60 q46 -58 46 -167q0 -133 -69 -178q36 -21 53 -50q29 -49 29 -144q0 -244 -193 -244q-97 0 -147 59q-50 58 -50 164q0 11 1 33h134q-1 -21 -1 -31q0 -105 61 -105q35 0 49 32q12 27 12 96q0 71 -20 98q-22 32 -107 32z"/>
<glyph vert-adv-y="1731" glyph-name="questiondown" horiz-adv-x="708" unicode="¿" d="M271 805v212h198v-212h-198zM290 614h165q1 -33 1 -49q0 -150 -26 -261q-23 -99 -119 -271q-45 -79 -45 -131q0 -97 75 -97q52 0 89 54q21 31 43 92l167 -65q-37 -120 -96 -175q-78 -73 -201 -73q-109 0 -178 57q-83 67 -83 196q0 81 36 163q16 37 75 137q58 99 79 179 q19 76 19 182q0 12 -1 62z"/>
<glyph vert-adv-y="1731" glyph-name="Agrave" horiz-adv-x="829" unicode="À" d="M493 492l-82 544l-78 -544h160zM525 301h-221l-46 -301h-203l223 1365h267l237 -1365h-210zM486 1474h-144l-148 164h198z"/>
<glyph vert-adv-y="1731" glyph-name="Aacute" horiz-adv-x="829" unicode="Á" d="M493 492l-82 544l-78 -544h160zM525 301h-221l-46 -301h-203l223 1365h267l237 -1365h-210zM317 1474l93 164h199l-148 -164h-144z"/>
<glyph vert-adv-y="1731" glyph-name="Acircumflex" horiz-adv-x="829" unicode="Â" d="M493 492l-82 544l-78 -544h160zM525 301h-221l-46 -301h-203l223 1365h267l237 -1365h-210zM312 1638h205l120 -164h-165l-58 63l-58 -63h-164z"/>
<glyph vert-adv-y="1731" glyph-name="Atilde" horiz-adv-x="829" unicode="Ã" d="M493 492l-82 544l-78 -544h160zM525 301h-221l-46 -301h-203l223 1365h267l237 -1365h-210zM217 1470v141q53 31 114 31q41 0 88 -16q65 -23 99 -23q36 0 95 34v-142q-59 -34 -96 -34q-33 0 -98 23q-47 16 -88 16q-61 0 -114 -30z"/>
<glyph vert-adv-y="1731" glyph-name="Adieresis" horiz-adv-x="829" unicode="Ä" d="M493 492l-82 544l-78 -544h160zM525 301h-221l-46 -301h-203l223 1365h267l237 -1365h-210zM648 1656v-182h-177v182h177zM361 1656v-182h-177v182h177z"/>
<glyph vert-adv-y="1731" glyph-name="Aring" horiz-adv-x="829" unicode="Å" d="M493 492l-82 544l-78 -544h160zM525 301h-221l-46 -301h-203l223 1365h267l237 -1365h-210zM415 1662q-29 0 -52 -21q-22 -21 -22 -51t22 -51q23 -21 53 -21q31 0 53 21t22 51q0 31 -22 51q-23 21 -54 21zM418 1733q59 0 104 -42q44 -40 44 -100t-44 -102t-106 -42 t-106 42t-44 102q0 61 44 100q47 42 108 42z"/>
<glyph vert-adv-y="1731" glyph-name="AE" horiz-adv-x="1179" unicode="Æ" d="M557 492v544l-162 -544h162zM557 301h-219l-91 -301h-213l426 1365h655v-191h-353v-371h253v-191h-253v-421h353v-191h-558v301z"/>
<glyph vert-adv-y="1731" glyph-name="Ccedilla" horiz-adv-x="795" unicode="Ç" d="M487 -95v-139l-44 -114h-97l35 114h-55v139h161zM727 913h-207q-1 134 -5 174q-6 51 -37 80q-30 27 -72 27q-82 0 -105 -90q-10 -38 -10 -205v-433q0 -178 13 -218q27 -77 101 -77q62 0 90 53q20 38 23 146q2 86 2 114h207v-86q0 -115 -14 -171q-29 -119 -114 -185 q-80 -62 -192 -62q-152 0 -239 108q-61 75 -72 160q-10 75 -10 204v461q0 202 28 272q43 109 138 161q70 39 156 39q127 0 214 -78q78 -69 98 -182q7 -43 7 -131v-81z"/>
<glyph vert-adv-y="1731" glyph-name="Egrave" horiz-adv-x="714" unicode="È" d="M649 1365v-191h-353v-371h253v-191h-253v-421h353v-191h-558v1365h558zM428 1474h-144l-148 164h198z"/>
<glyph vert-adv-y="1731" glyph-name="Eacute" horiz-adv-x="714" unicode="É" d="M649 1365v-191h-353v-371h253v-191h-253v-421h353v-191h-558v1365h558zM258 1474l93 164h199l-148 -164h-144z"/>
<glyph vert-adv-y="1731" glyph-name="Ecircumflex" horiz-adv-x="714" unicode="Ê" d="M649 1365v-191h-353v-371h253v-191h-253v-421h353v-191h-558v1365h558zM254 1638h205l120 -164h-165l-58 63l-58 -63h-164z"/>
<glyph vert-adv-y="1731" glyph-name="Edieresis" horiz-adv-x="714" unicode="Ë" d="M649 1365v-191h-353v-371h253v-191h-253v-421h353v-191h-558v1365h558zM588 1656v-182h-177v182h177zM301 1656v-182h-177v182h177z"/>
<glyph vert-adv-y="1731" glyph-name="Igrave" horiz-adv-x="388" unicode="Ì" d="M297 1365v-1365h-205v1365h205zM265 1474h-144l-148 164h198z"/>
<glyph vert-adv-y="1731" glyph-name="Iacute" horiz-adv-x="388" unicode="Í" d="M296 1365v-1365h-205v1365h205zM95 1474l93 164h199l-148 -164h-144z"/>
<glyph vert-adv-y="1731" glyph-name="Icircumflex" horiz-adv-x="388" unicode="Î" d="M296 1365v-1365h-205v1365h205zM91 1638h205l120 -164h-165l-58 63l-58 -63h-164z"/>
<glyph vert-adv-y="1731" glyph-name="Idieresis" horiz-adv-x="388" unicode="Ï" d="M296 1365v-1365h-205v1365h205zM412 1656v-182h-177v182h177zM152 1656v-182h-177v182h177z"/>
<glyph vert-adv-y="1731" glyph-name="Eth" horiz-adv-x="814" unicode="Ð" d="M296 191h64q88 1 127 54q26 34 31 82q5 38 5 97v518q0 100 -12 131q-32 100 -151 101h-64v-371h117v-191h-117v-421zM91 0v612h-68v191h68v562h292h2q345 0 343 -386v-593q2 -386 -345 -386h-292z"/>
<glyph vert-adv-y="1731" glyph-name="Ntilde" horiz-adv-x="861" unicode="Ñ" d="M769 0h-191l-296 843v-843h-191v1365h208l279 -810v810h191v-1365zM232 1470v141q53 31 114 31q41 0 88 -16q65 -23 99 -23q36 0 95 34v-142q-59 -34 -96 -34q-33 0 -98 23q-47 16 -88 16q-61 0 -114 -30z"/>
<glyph vert-adv-y="1731" glyph-name="Ograve" horiz-adv-x="814" unicode="Ò" d="M291 899v-433q0 -178 14 -218q26 -77 102 -77q83 0 106 90q10 38 10 205v433q0 178 -13 218q-27 77 -103 77q-83 0 -106 -90q-10 -39 -10 -205zM728 920v-475q0 -192 -28 -265q-42 -109 -138 -162q-70 -38 -155 -38q-152 0 -239 108q-59 73 -71 160q-11 79 -11 197v475 q0 192 28 266q42 108 138 161q70 38 155 38q152 0 240 -108q59 -73 70 -160q11 -79 11 -197zM478 1474h-144l-148 164h198z"/>
<glyph vert-adv-y="1731" glyph-name="Oacute" horiz-adv-x="814" unicode="Ó" d="M291 899v-433q0 -178 14 -218q26 -77 102 -77q83 0 106 90q10 38 10 205v433q0 178 -13 218q-27 77 -103 77q-83 0 -106 -90q-10 -39 -10 -205zM728 920v-475q0 -192 -28 -265q-42 -109 -138 -162q-70 -38 -155 -38q-152 0 -239 108q-59 73 -71 160q-11 79 -11 197v475 q0 192 28 266q42 108 138 161q70 38 155 38q152 0 240 -108q59 -73 70 -160q11 -79 11 -197zM309 1474l93 164h199l-148 -164h-144z"/>
<glyph vert-adv-y="1731" glyph-name="Ocircumflex" horiz-adv-x="814" unicode="Ô" d="M291 899v-433q0 -178 14 -218q26 -77 102 -77q83 0 106 90q10 38 10 205v433q0 178 -13 218q-27 77 -103 77q-83 0 -106 -90q-10 -39 -10 -205zM728 920v-475q0 -192 -28 -265q-42 -109 -138 -162q-70 -38 -155 -38q-152 0 -239 108q-59 73 -71 160q-11 79 -11 197v475 q0 192 28 266q42 108 138 161q70 38 155 38q152 0 240 -108q59 -73 70 -160q11 -79 11 -197zM304 1638h205l120 -164h-165l-58 63l-58 -63h-164z"/>
<glyph vert-adv-y="1731" glyph-name="Otilde" horiz-adv-x="814" unicode="Õ" d="M291 899v-433q0 -178 14 -218q26 -77 102 -77q83 0 106 90q10 38 10 205v433q0 178 -13 218q-27 77 -103 77q-83 0 -106 -90q-10 -39 -10 -205zM728 920v-475q0 -192 -28 -265q-42 -109 -138 -162q-70 -38 -155 -38q-152 0 -239 108q-59 73 -71 160q-11 79 -11 197v475 q0 192 28 266q42 108 138 161q70 38 155 38q152 0 240 -108q59 -73 70 -160q11 -79 11 -197zM209 1470v141q53 31 114 31q41 0 88 -16q65 -23 99 -23q36 0 95 34v-142q-59 -34 -96 -34q-33 0 -98 23q-47 16 -88 16q-61 0 -114 -30z"/>
<glyph vert-adv-y="1731" glyph-name="Odieresis" horiz-adv-x="814" unicode="Ö" d="M291 899v-433q0 -178 14 -218q26 -77 102 -77q83 0 106 90q10 38 10 205v433q0 178 -13 218q-27 77 -103 77q-83 0 -106 -90q-10 -39 -10 -205zM728 920v-475q0 -192 -28 -265q-42 -109 -138 -162q-70 -38 -155 -38q-152 0 -239 108q-59 73 -71 160q-11 79 -11 197v475 q0 192 28 266q42 108 138 161q70 38 155 38q152 0 240 -108q59 -73 70 -160q11 -79 11 -197zM639 1656v-182h-177v182h177zM352 1656v-182h-177v182h177z"/>
<glyph vert-adv-y="1731" glyph-name="multiply" horiz-adv-x="778" unicode="×" d="M546 966l113 -112l-155 -155l152 -152l-118 -118l-152 152l-154 -154l-113 112l155 155l-152 152l117 117l152 -152z"/>
<glyph vert-adv-y="1731" glyph-name="Oslash" horiz-adv-x="814" unicode="Ø" d="M296 287q15 -117 111 -117q83 0 106 90q10 39 10 206v408zM508 1120q-28 75 -101 75q-83 0 -106 -90q-10 -39 -10 -206v-343zM612 1389h110l-55 -141q27 -41 40 -84q21 -57 21 -244v-475q0 -192 -28 -266q-42 -109 -138 -161q-71 -39 -154 -39q-113 0 -203 71l-29 -74 h-109l64 167q-17 33 -26 67q-19 59 -19 235v475q0 192 28 266q42 109 138 161q70 39 156 39q98 0 182 -56z"/>
<glyph vert-adv-y="1731" glyph-name="Ugrave" horiz-adv-x="825" unicode="Ù" d="M528 1365h205v-920q0 -192 -28 -265q-42 -109 -138 -162q-70 -38 -155 -38q-152 0 -239 108q-59 73 -71 160q-11 79 -11 197v920h205v-899q0 -178 14 -218q26 -77 102 -77q83 0 106 90q10 38 10 205v899zM483 1474h-144l-148 164h198z"/>
<glyph vert-adv-y="1731" glyph-name="Uacute" horiz-adv-x="825" unicode="Ú" d="M528 1365h205v-920q0 -192 -28 -265q-42 -109 -138 -162q-70 -38 -155 -38q-152 0 -239 108q-59 73 -71 160q-11 79 -11 197v920h205v-899q0 -178 14 -218q26 -77 102 -77q83 0 106 90q10 38 10 205v899zM314 1474l93 164h199l-148 -164h-144z"/>
<glyph vert-adv-y="1731" glyph-name="Ucircumflex" horiz-adv-x="825" unicode="Û" d="M528 1365h205v-920q0 -192 -28 -265q-42 -109 -138 -162q-70 -38 -155 -38q-152 0 -239 108q-59 73 -71 160q-11 79 -11 197v920h205v-899q0 -178 14 -218q26 -77 102 -77q83 0 106 90q10 38 10 205v899zM309 1638h205l120 -164h-165l-58 63l-58 -63h-164z"/>
<glyph vert-adv-y="1731" glyph-name="Udieresis" horiz-adv-x="825" unicode="Ü" d="M528 1365h205v-920q0 -192 -28 -265q-42 -109 -138 -162q-70 -38 -155 -38q-152 0 -239 108q-59 73 -71 160q-11 79 -11 197v920h205v-899q0 -178 14 -218q26 -77 102 -77q83 0 106 90q10 38 10 205v899zM644 1656v-182h-177v182h177zM357 1656v-182h-177v182h177z"/>
<glyph vert-adv-y="1731" glyph-name="Yacute" horiz-adv-x="761" unicode="Ý" d="M488 552v-552h-205v552l-256 813h214l145 -536l141 536h207zM282 1474l93 164h199l-148 -164h-144z"/>
<glyph vert-adv-y="1731" glyph-name="Thorn" horiz-adv-x="801" unicode="Þ" d="M296 523h66q94 0 128 40q26 30 32 74q5 43 5 96q0 90 -13 127q-19 55 -68 72q-28 10 -84 10h-66v-419zM296 332v-332h-205v1365h205v-232h83q120 0 183 -26q105 -43 144 -160q26 -79 26 -214q0 -163 -39 -246q-50 -108 -159 -139q-56 -16 -155 -16h-83z"/>
<glyph vert-adv-y="1731" glyph-name="germandbls" horiz-adv-x="701" unicode="ß" d="M263 0h-184v1086q0 134 70 213q70 80 194 80q114 0 182 -68q66 -66 66 -182q0 -73 -29 -122q-23 -38 -78 -62q71 -36 99 -111q41 -107 41 -329q0 -235 -46 -358q-29 -76 -89 -119q-39 -28 -92 -28h-65v167h23q51 0 70 83q15 69 15 281q0 191 -28 253q-26 57 -80 66v167 q88 5 88 98q0 97 -76 97q-51 0 -68 -43q-13 -31 -13 -94v-1075z"/>
<glyph vert-adv-y="1731" glyph-name="agrave" horiz-adv-x="709" unicode="à" d="M437 519q-90 -57 -130 -108q-54 -67 -54 -151q0 -107 63 -107q65 0 121 95v271zM640 0h-185q-8 55 -13 116q-112 -130 -214 -130q-76 0 -120 64q-46 67 -46 178q0 106 50 184q55 85 204 177q45 28 121 71v65q0 78 -13 104q-17 35 -63 35q-49 0 -70 -48q-12 -28 -15 -91 h-188q8 124 60 197q78 109 230 109q129 0 193 -87q37 -51 44 -110q6 -51 6 -130v-336q0 -187 3 -233q4 -64 16 -135zM439 1188h-144l-148 164h198z"/>
<glyph vert-adv-y="1731" glyph-name="aacute" horiz-adv-x="709" unicode="á" d="M437 519q-90 -57 -130 -108q-54 -67 -54 -151q0 -107 63 -107q65 0 121 95v271zM640 0h-185q-8 55 -13 116q-112 -130 -214 -130q-76 0 -120 64q-46 67 -46 178q0 106 50 184q55 85 204 177q45 28 121 71v65q0 78 -13 104q-17 35 -63 35q-49 0 -70 -48q-12 -28 -15 -91 h-188q8 124 60 197q78 109 230 109q129 0 193 -87q37 -51 44 -110q6 -51 6 -130v-336q0 -187 3 -233q4 -64 16 -135zM256 1188l93 164h199l-148 -164h-144z"/>
<glyph vert-adv-y="1731" glyph-name="acircumflex" horiz-adv-x="709" unicode="â" d="M437 519q-90 -57 -130 -108q-54 -67 -54 -151q0 -107 63 -107q65 0 121 95v271zM640 0h-185q-8 55 -13 116q-112 -130 -214 -130q-76 0 -120 64q-46 67 -46 178q0 106 50 184q55 85 204 177q45 28 121 71v65q0 78 -13 104q-17 35 -63 35q-49 0 -70 -48q-12 -28 -15 -91 h-188q8 124 60 197q78 109 230 109q129 0 193 -87q37 -51 44 -110q6 -51 6 -130v-336q0 -187 3 -233q4 -64 16 -135zM251 1352h205l120 -164h-165l-58 63l-58 -63h-164z"/>
<glyph vert-adv-y="1731" glyph-name="atilde" horiz-adv-x="709" unicode="ã" d="M437 519q-90 -57 -130 -108q-54 -67 -54 -151q0 -107 63 -107q65 0 121 95v271zM640 0h-185q-8 55 -13 116q-112 -130 -214 -130q-76 0 -120 64q-46 67 -46 178q0 106 50 184q55 85 204 177q45 28 121 71v65q0 78 -13 104q-17 35 -63 35q-49 0 -70 -48q-12 -28 -15 -91 h-188q8 124 60 197q78 109 230 109q129 0 193 -87q37 -51 44 -110q6 -51 6 -130v-336q0 -187 3 -233q4 -64 16 -135zM156 1188v141q54 31 114 31q40 0 88 -16q66 -23 99 -23q36 0 95 34v-141q-59 -35 -96 -35q-32 0 -98 23q-48 16 -88 16q-60 0 -114 -30z"/>
<glyph vert-adv-y="1731" glyph-name="adieresis" horiz-adv-x="709" unicode="ä" d="M437 519q-90 -57 -130 -108q-54 -67 -54 -151q0 -107 63 -107q65 0 121 95v271zM640 0h-185q-8 55 -13 116q-112 -130 -214 -130q-76 0 -120 64q-46 67 -46 178q0 106 50 184q55 85 204 177q45 28 121 71v65q0 78 -13 104q-17 35 -63 35q-49 0 -70 -48q-12 -28 -15 -91 h-188q8 124 60 197q78 109 230 109q129 0 193 -87q37 -51 44 -110q6 -51 6 -130v-336q0 -187 3 -233q4 -64 16 -135zM596 1365v-182h-177v182h177zM309 1365v-182h-177v182h177z"/>
<glyph vert-adv-y="1731" glyph-name="aring" horiz-adv-x="709" unicode="å" d="M437 519q-90 -57 -130 -108q-54 -67 -54 -151q0 -107 63 -107q65 0 121 95v271zM640 0h-185q-8 55 -13 116q-112 -130 -214 -130q-76 0 -120 64q-46 67 -46 178q0 106 50 184q55 85 204 177q45 28 121 71v65q0 78 -13 104q-17 35 -63 35q-49 0 -70 -48q-12 -28 -15 -91 h-188q8 124 60 197q78 109 230 109q129 0 193 -87q37 -51 44 -110q6 -51 6 -130v-336q0 -187 3 -233q4 -64 16 -135zM348 1358q-29 0 -52 -21q-22 -20 -22 -50t22 -51t53 -21t53 21t22 51t-22 50q-23 21 -54 21zM351 1429q59 0 104 -42q44 -39 44 -99q0 -61 -44 -102 q-44 -42 -106 -42t-106 42t-44 101q0 61 44 100q47 42 108 42z"/>
<glyph vert-adv-y="1731" glyph-name="ae" horiz-adv-x="1061" unicode="æ" d="M804 629v94q0 141 -92 141t-92 -141v-94h184zM436 518q-91 -58 -130 -107q-54 -67 -54 -150q0 -108 63 -108q65 0 121 95v270zM988 475h-368v-180q0 -142 94 -142q58 0 78 48q10 24 10 105q0 15 -1 46h187q1 -50 1 -63q0 -85 -15 -129q-29 -88 -110 -135 q-67 -39 -147 -39q-156 0 -239 130q-121 -130 -230 -130q-85 0 -135 64q-52 65 -52 180q0 105 50 182q55 84 204 177q45 28 121 71v65q0 78 -13 104q-17 35 -63 35q-49 0 -70 -48q-12 -28 -15 -91h-188q8 124 60 197q78 109 229 109q98 0 166 -56q78 56 172 56 q139 0 217 -105q39 -53 49 -119q8 -54 8 -121v-211z"/>
<glyph vert-adv-y="1731" glyph-name="ccedilla" horiz-adv-x="669" unicode="ç" d="M424 -95v-139l-44 -114h-97l35 114h-55v139h161zM614 666h-184q1 29 1 42q0 71 -7 100q-14 56 -79 56q-89 0 -89 -141v-429q0 -141 88 -141q66 0 80 62q7 32 7 109q0 15 -1 47h184q1 -51 1 -61q0 -94 -14 -141q-28 -92 -107 -142q-65 -41 -144 -41q-88 0 -162 50 q-78 54 -102 149q-14 54 -14 146v356q0 162 58 239q39 52 105 80q56 25 117 25q93 0 163 -53q71 -53 91 -144q9 -43 9 -118q0 -13 -1 -50z"/>
<glyph vert-adv-y="1731" glyph-name="egrave" horiz-adv-x="697" unicode="è" d="M440 629v94q0 141 -92 141t-92 -141v-94h184zM624 475h-368v-180q0 -142 94 -142q58 0 78 48q10 25 10 105q0 14 -1 46h187q1 -49 1 -63q0 -85 -15 -129q-28 -88 -110 -135q-67 -39 -146 -39q-91 0 -165 50q-79 53 -103 149q-14 55 -14 146v355q0 163 57 240 q39 52 103 80q56 25 118 25q140 0 217 -105q39 -53 49 -120q8 -54 8 -120v-211zM433 1188h-144l-148 164h198z"/>
<glyph vert-adv-y="1731" glyph-name="eacute" horiz-adv-x="697" unicode="é" d="M440 629v94q0 141 -92 141t-92 -141v-94h184zM624 475h-368v-180q0 -142 94 -142q58 0 78 48q10 25 10 105q0 14 -1 46h187q1 -49 1 -63q0 -85 -15 -129q-28 -88 -110 -135q-67 -39 -146 -39q-91 0 -165 50q-79 53 -103 149q-14 55 -14 146v355q0 163 57 240 q39 52 103 80q56 25 118 25q140 0 217 -105q39 -53 49 -120q8 -54 8 -120v-211zM250 1188l93 164h199l-148 -164h-144z"/>
<glyph vert-adv-y="1731" glyph-name="ecircumflex" horiz-adv-x="697" unicode="ê" d="M440 629v94q0 141 -92 141t-92 -141v-94h184zM624 475h-368v-180q0 -142 94 -142q58 0 78 48q10 25 10 105q0 14 -1 46h187q1 -49 1 -63q0 -85 -15 -129q-28 -88 -110 -135q-67 -39 -146 -39q-91 0 -165 50q-79 53 -103 149q-14 55 -14 146v355q0 163 57 240 q39 52 103 80q56 25 118 25q140 0 217 -105q39 -53 49 -120q8 -54 8 -120v-211zM246 1352h205l120 -164h-165l-58 63l-58 -63h-164z"/>
<glyph vert-adv-y="1731" glyph-name="edieresis" horiz-adv-x="697" unicode="ë" d="M440 629v94q0 141 -92 141t-92 -141v-94h184zM624 475h-368v-180q0 -142 94 -142q58 0 78 48q10 25 10 105q0 14 -1 46h187q1 -49 1 -63q0 -85 -15 -129q-28 -88 -110 -135q-67 -39 -146 -39q-91 0 -165 50q-79 53 -103 149q-14 55 -14 146v355q0 163 57 240 q39 52 103 80q56 25 118 25q140 0 217 -105q39 -53 49 -120q8 -54 8 -120v-211zM580 1365v-182h-177v182h177zM293 1365v-182h-177v182h177z"/>
<glyph vert-adv-y="1731" glyph-name="igrave" horiz-adv-x="343" unicode="ì" d="M263 1017v-1017h-184v1017h184zM256 1188h-144l-148 164h198z"/>
<glyph vert-adv-y="1731" glyph-name="iacute" horiz-adv-x="343" unicode="í" d="M263 1017v-1017h-184v1017h184zM73 1188l93 164h199l-148 -164h-144z"/>
<glyph vert-adv-y="1731" glyph-name="icircumflex" horiz-adv-x="343" unicode="î" d="M263 1017v-1017h-184v1017h184zM69 1352h205l120 -164h-165l-58 63l-58 -63h-164z"/>
<glyph vert-adv-y="1731" glyph-name="idieresis" horiz-adv-x="343" unicode="ï" d="M263 1017v-1017h-184v1017h184zM390 1365v-182h-177v182h177zM130 1365v-182h-177v182h177z"/>
<glyph vert-adv-y="1731" glyph-name="eth" horiz-adv-x="689" unicode="ð" d="M256 723v-429q0 -141 88 -141t88 141v429q0 141 -88 141t-88 -141zM416 1339l98 82l52 -62l-94 -80q138 -159 144 -498v-450q0 -163 -57 -240q-37 -52 -101 -80q-55 -25 -114 -25q-87 0 -159 50q-76 54 -100 149q-13 54 -13 146v380q0 132 14 180q22 76 83 113 q46 27 104 27q81 0 156 -85q-17 158 -71 238l-99 -83l-53 63l104 87q-18 20 -52 50l95 93q32 -25 63 -55z"/>
<glyph vert-adv-y="1731" glyph-name="ntilde" horiz-adv-x="690" unicode="ñ" d="M263 1017v-110q60 65 102 92q51 32 110 32q69 0 102 -47q24 -34 29 -76q4 -43 4 -116v-792h-184v749q0 66 -6 84q-9 30 -40 30q-55 0 -117 -85v-778h-184v1017h184zM147 1188v141q54 31 114 31q40 0 88 -16q66 -23 99 -23q36 0 95 34v-141q-59 -35 -96 -35q-32 0 -98 23 q-48 16 -88 16q-60 0 -114 -30z"/>
<glyph vert-adv-y="1731" glyph-name="ograve" horiz-adv-x="689" unicode="ò" d="M256 723v-429q0 -141 88 -141t88 141v429q0 141 -88 141t-88 -141zM616 686v-355q0 -163 -57 -240q-37 -52 -101 -80q-55 -25 -114 -25q-87 0 -159 50q-76 54 -100 149q-13 54 -13 146v355q0 163 57 240q37 52 101 80q55 25 114 25q87 0 159 -50q76 -54 100 -149 q13 -54 13 -146zM429 1188h-144l-148 164h198z"/>
<glyph vert-adv-y="1731" glyph-name="oacute" horiz-adv-x="689" unicode="ó" d="M256 723v-429q0 -141 88 -141t88 141v429q0 141 -88 141t-88 -141zM616 686v-355q0 -163 -57 -240q-37 -52 -101 -80q-55 -25 -114 -25q-87 0 -159 50q-76 54 -100 149q-13 54 -13 146v355q0 163 57 240q37 52 101 80q55 25 114 25q87 0 159 -50q76 -54 100 -149 q13 -54 13 -146zM246 1188l93 164h199l-148 -164h-144z"/>
<glyph vert-adv-y="1731" glyph-name="ocircumflex" horiz-adv-x="689" unicode="ô" d="M256 723v-429q0 -141 88 -141t88 141v429q0 141 -88 141t-88 -141zM616 686v-355q0 -163 -57 -240q-37 -52 -101 -80q-55 -25 -114 -25q-87 0 -159 50q-76 54 -100 149q-13 54 -13 146v355q0 163 57 240q37 52 101 80q55 25 114 25q87 0 159 -50q76 -54 100 -149 q13 -54 13 -146zM242 1352h205l120 -164h-165l-58 63l-58 -63h-164z"/>
<glyph vert-adv-y="1731" glyph-name="otilde" horiz-adv-x="689" unicode="õ" d="M256 723v-429q0 -141 88 -141t88 141v429q0 141 -88 141t-88 -141zM616 686v-355q0 -163 -57 -240q-37 -52 -101 -80q-55 -25 -114 -25q-87 0 -159 50q-76 54 -100 149q-13 54 -13 146v355q0 163 57 240q37 52 101 80q55 25 114 25q87 0 159 -50q76 -54 100 -149 q13 -54 13 -146zM146 1188v141q54 31 114 31q40 0 88 -16q66 -23 99 -23q36 0 95 34v-141q-59 -35 -96 -35q-32 0 -98 23q-48 16 -88 16q-60 0 -114 -30z"/>
<glyph vert-adv-y="1731" glyph-name="odieresis" horiz-adv-x="689" unicode="ö" d="M256 723v-429q0 -141 88 -141t88 141v429q0 141 -88 141t-88 -141zM616 686v-355q0 -163 -57 -240q-37 -52 -101 -80q-55 -25 -114 -25q-87 0 -159 50q-76 54 -100 149q-13 54 -13 146v355q0 163 57 240q37 52 101 80q55 25 114 25q87 0 159 -50q76 -54 100 -149 q13 -54 13 -146zM576 1365v-182h-177v182h177zM289 1365v-182h-177v182h177z"/>
<glyph vert-adv-y="1731" glyph-name="divide" horiz-adv-x="778" unicode="÷" d="M469 1056v-171h-160v171h160zM469 508v-171h-160v171h160zM691 776v-159h-604v159h604z"/>
<glyph vert-adv-y="1731" glyph-name="oslash" horiz-adv-x="689" unicode="ø" d="M302 165q20 -12 42 -12q88 0 88 141v389zM392 849q-23 15 -47 15q-89 0 -89 -141v-413zM450 1079h81l-25 -101q33 -24 53 -52q39 -55 49 -120q8 -52 8 -120v-355q0 -163 -57 -240q-37 -52 -101 -80q-55 -25 -114 -25q-40 0 -84 14l-22 -86h-81l30 121q-38 28 -58 56 q-38 51 -49 120q-8 52 -8 120v355q0 163 57 240q37 52 101 80q55 25 116 25q42 0 88 -15z"/>
<glyph vert-adv-y="1731" glyph-name="ugrave" horiz-adv-x="690" unicode="ù" d="M610 1017v-1017h-184v110q-60 -66 -102 -92q-52 -32 -110 -32q-68 0 -102 47q-24 34 -29 76q-4 43 -4 116v792h184v-749q0 -67 6 -84q9 -30 40 -30q55 0 117 85v778h184zM429 1188h-144l-148 164h198z"/>
<glyph vert-adv-y="1731" glyph-name="uacute" horiz-adv-x="690" unicode="ú" d="M610 1017v-1017h-184v110q-60 -66 -102 -92q-52 -32 -110 -32q-68 0 -102 47q-24 34 -29 76q-4 43 -4 116v792h184v-749q0 -67 6 -84q9 -30 40 -30q55 0 117 85v778h184zM247 1188l93 164h199l-148 -164h-144z"/>
<glyph vert-adv-y="1731" glyph-name="ucircumflex" horiz-adv-x="690" unicode="û" d="M610 1017v-1017h-184v110q-60 -66 -102 -92q-52 -32 -110 -32q-68 0 -102 47q-24 34 -29 76q-4 43 -4 116v792h184v-749q0 -67 6 -84q9 -30 40 -30q55 0 117 85v778h184zM242 1352h205l120 -164h-165l-58 63l-58 -63h-164z"/>
<glyph vert-adv-y="1731" glyph-name="udieresis" horiz-adv-x="690" unicode="ü" d="M610 1017v-1017h-184v110q-60 -66 -102 -92q-52 -32 -110 -32q-68 0 -102 47q-24 34 -29 76q-4 43 -4 116v792h184v-749q0 -67 6 -84q9 -30 40 -30q55 0 117 85v778h184zM577 1365v-182h-177v182h177zM290 1365v-182h-177v182h177z"/>
<glyph vert-adv-y="1731" glyph-name="yacute" horiz-adv-x="655" unicode="ý" d="M439 1017h182l-207 -1043q-33 -163 -49 -200q-39 -89 -126 -119q-51 -17 -127 -17q-33 0 -65 5v180q25 -1 40 -1q84 0 122 65q14 25 32 101l-207 1029h185l111 -655zM230 1188l93 164h199l-148 -164h-144z"/>
<glyph vert-adv-y="1731" glyph-name="thorn" horiz-adv-x="692" unicode="þ" d="M263 198q46 -44 93 -44q48 0 66 37q14 27 14 113v409q0 85 -14 113q-18 37 -66 37q-46 0 -93 -44v-621zM79 1365h184v-446q94 112 191 112q93 0 133 -81q24 -49 28 -102q5 -57 5 -137v-405q0 -132 -11 -179q-33 -141 -154 -141q-98 0 -192 112v-446h-184v1713z"/>
<glyph vert-adv-y="1731" glyph-name="dotlessi" horiz-adv-x="343" unicode="ı" d="M263 1017v-1017h-184v1017h184z"/>
<glyph vert-adv-y="1731" glyph-name="OE" horiz-adv-x="1143" unicode="Œ" d="M524 191v983h-64q-88 0 -127 -47q-26 -30 -32 -72q-4 -33 -4 -86v-573q0 -88 12 -116q32 -88 151 -89h64zM1082 1365v-191h-353v-371h253v-191h-253v-421h353v-191h-645q-345 0 -345 379v7v593v7q0 379 343 379h2h645z"/>
<glyph vert-adv-y="1731" glyph-name="oe" horiz-adv-x="1066" unicode="œ" d="M809 629v94q0 141 -91 141q-92 0 -92 -141v-94h183zM266 723v-428q0 -142 88 -142t88 142v428q0 141 -88 141t-88 -141zM993 475h-367v-180q0 -142 93 -142q58 0 78 48q10 24 10 105q0 14 -1 46h187q1 -50 1 -63q0 -85 -15 -129q-29 -87 -111 -135q-66 -39 -144 -39 q-104 0 -189 68q-82 -68 -182 -68q-86 0 -158 51q-76 53 -100 148q-13 54 -13 146v355q0 163 57 240q37 52 101 80q55 25 115 25q99 0 180 -67q82 67 184 67q139 0 217 -105q39 -53 49 -120q8 -54 8 -120v-211z"/>
<glyph vert-adv-y="1731" glyph-name="Scaron" horiz-adv-x="760" unicode="Š" d="M697 1059l-198 -30q-8 78 -25 109q-29 56 -94 56q-51 0 -82 -34q-34 -37 -34 -101q0 -68 38 -129q32 -52 145 -154q150 -137 201 -216q64 -99 64 -231q0 -146 -81 -241q-92 -108 -244 -108q-187 0 -284 157q-52 84 -55 212l195 33q9 -211 146 -211q59 0 92 42 q33 41 33 106q0 78 -53 148q-36 47 -160 161q-121 112 -173 198q-62 102 -62 221q0 164 100 257q86 81 221 81q167 0 251 -129q44 -68 59 -197zM483 1474h-205l-120 164h165l58 -63l58 63h164z"/>
<glyph vert-adv-y="1731" glyph-name="scaron" horiz-adv-x="641" unicode="š" d="M596 778l-174 -41q-13 62 -27 85q-26 42 -76 42q-42 0 -66 -28q-20 -25 -20 -63q0 -42 31 -81q26 -33 104 -92q112 -85 162 -139q76 -83 76 -208q0 -116 -65 -184q-79 -83 -213 -83q-252 0 -298 292l174 41q15 -74 30 -102q35 -64 97 -64q36 0 61 21q29 25 29 74 q0 48 -30 85q-25 32 -96 86q-140 107 -193 177q-53 72 -53 170q0 131 88 203q77 62 188 62q233 0 271 -253zM423 1188h-205l-120 164h165l58 -63l58 63h164z"/>
<glyph vert-adv-y="1731" glyph-name="Ydieresis" horiz-adv-x="761" unicode="Ÿ" d="M488 552v-552h-205v552l-256 813h214l145 -536l141 536h207zM612 1656v-182h-177v182h177zM325 1656v-182h-177v182h177z"/>
<glyph vert-adv-y="1731" glyph-name="circumflex" d="M409 1352h205l120 -164h-165l-58 63l-58 -63h-164z" unicode="ˆ"/>
<glyph vert-adv-y="1731" glyph-name="caron" d="M614 1188h-205l-120 164h165l58 -63l58 63h164z" unicode="ˇ"/>
<glyph vert-adv-y="1731" glyph-name="ring" d="M511 1358q-29 0 -52 -21q-22 -20 -22 -50t22 -51t53 -21t53 21t22 51t-22 50q-23 21 -54 21zM514 1429q59 0 104 -42q44 -39 44 -99q0 -61 -44 -102q-44 -42 -106 -42t-106 42t-44 101q0 61 44 100q47 42 108 42z" unicode="˚"/>
<glyph vert-adv-y="1731" glyph-name="tilde" d="M314 1188v141q54 31 114 31q40 0 88 -16q66 -23 99 -23q36 0 95 34v-141q-59 -35 -96 -35q-32 0 -98 23q-48 16 -88 16q-60 0 -114 -30z" unicode="˜"/>
<glyph vert-adv-y="1731" glyph-name="pi" horiz-adv-x="1170" unicode="π" d="M189 0v837h-149v144h1090v-144h-147v-837h-179v837h-436v-837h-179z"/>
<glyph vert-adv-y="1731" glyph-name="endash" horiz-adv-x="778" unicode="–" d="M691 611v-184h-604v184h604z"/>
<glyph vert-adv-y="1731" glyph-name="emdash" horiz-adv-x="878" unicode="—" d="M878 611v-184h-878v184h878z"/>
<glyph vert-adv-y="1731" glyph-name="quoteleft" horiz-adv-x="389" unicode="‘" d="M96 917v212l107 236h91l-72 -236h72v-212h-198z"/>
<glyph vert-adv-y="1731" glyph-name="quotesinglbase" horiz-adv-x="389" unicode="‚" d="M294 212v-212l-107 -237h-91l72 237h-72v212h198z"/>
<glyph vert-adv-y="1731" glyph-name="quotedblleft" horiz-adv-x="669" unicode="“" d="M96 917v212l107 236h91l-72 -236h72v-212h-198zM376 917v212l107 236h91l-72 -236h72v-212h-198z"/>
<glyph vert-adv-y="1731" glyph-name="quotedblright" horiz-adv-x="669" unicode="”" d="M574 1365v-212l-107 -236h-91l72 236h-72v212h198zM294 1365v-212l-107 -236h-91l72 236h-72v212h198z"/>
<glyph vert-adv-y="1731" glyph-name="dagger" horiz-adv-x="794" unicode="†" d="M713 1028v-167h-223v-861h-184v861h-224v167h224v337h184v-337h223z"/>
<glyph vert-adv-y="1731" glyph-name="daggerdbl" horiz-adv-x="794" unicode="‡" d="M713 1028v-167h-223v-357h223v-167h-223v-337h-184v337h-224v167h224v357h-224v167h224v337h184v-337h223z"/>
<glyph vert-adv-y="1731" glyph-name="ellipsis" horiz-adv-x="1106" unicode="…" d="M1020 212v-212h-198v212h198zM652 212v-212h-198v212h198zM283 212v-212h-198v212h198z"/>
<glyph vert-adv-y="1731" glyph-name="perthousand" horiz-adv-x="1533" unicode="‰" d="M1234 491v-304q0 -59 7 -77q10 -26 43 -26t43 26q7 18 7 77v304q0 58 -7 76q-10 26 -43 26t-43 -26q-7 -17 -7 -76zM1451 489v-301q0 -100 -35 -146q-47 -62 -132 -62t-132 62q-35 46 -35 146v301q0 100 35 146q47 62 132 62t132 -62q35 -46 35 -146zM791 491v-304 q0 -59 7 -77q10 -26 43 -26t43 26q7 18 7 77v304q0 58 -7 76q-10 26 -43 26t-43 -26q-7 -18 -7 -76zM1008 489v-301q0 -100 -35 -146q-47 -62 -132 -62t-132 62q-35 47 -35 146v301q0 100 35 146q47 62 132 62t132 -62q35 -46 35 -146zM779 1365h123l-591 -1365h-123z M199 1179v-304q0 -58 7 -76q10 -26 43 -26t43 26q7 18 7 76v304q0 58 -7 76q-10 26 -43 26t-43 -26q-7 -18 -7 -76zM416 1178v-301q0 -100 -35 -146q-47 -62 -132 -62t-132 62q-35 46 -35 146v301q0 99 35 145q47 62 132 62t132 -62q35 -46 35 -145z"/>
<glyph vert-adv-y="1731" glyph-name="guilsinglleft" horiz-adv-x="347" unicode="‹" d="M266 205l-184 167v293l184 168v-245l-63 -69l63 -70v-244z"/>
<glyph vert-adv-y="1731" glyph-name="guilsinglright" horiz-adv-x="347" unicode="›" d="M82 833l184 -168v-293l-184 -167v244l63 70l-63 69v245z"/>
<glyph vert-adv-y="1731" glyph-name="Euro" horiz-adv-x="1147" unicode="€" d="M175 858q37 187 137 327q138 194 409 194q205 0 392 -133l-70 -168q-108 74 -171 99q-84 33 -164 33q-159 0 -250 -141q-56 -86 -80 -211h573l-47 -117h-546q-4 -38 -4 -74q0 -25 2 -45h496l-48 -117h-430q27 -146 105 -251q82 -110 235 -110q91 0 199 46q43 18 130 65 v-200q-146 -83 -332 -83q-447 0 -540 533h-163l46 117h104q-1 34 -1 50q0 33 4 69h-153l46 117h121z"/>
<glyph vert-adv-y="1731" glyph-name="trademark" horiz-adv-x="1133" unicode="™" d="M1052 587h-125v476l-111 -476h-72l-117 479v-479h-125v778h173l105 -437l99 437h173v-778zM313 1244v-657h-132v657h-126v121h387v-121h-129z"/>
<glyph vert-adv-y="1731" glyph-name="partialdiff" d="M519 746q-64 0 -136 -37q-62 -32 -101 -93q-52 -82 -52 -179q0 -134 92 -225q82 -81 190 -81q98 0 176 67q104 88 104 246q0 152 -94 234q-78 68 -179 68zM162 1219l23 151q177 -24 296 -73q257 -106 387 -363q97 -192 97 -435q0 -196 -83 -321q-65 -100 -171 -153 q-92 -46 -198 -46q-151 0 -272 90q-70 52 -114 126q-67 110 -67 244q0 137 71 253q62 102 166 153q87 44 183 44q126 0 205 -56q25 -17 86 -83q-15 29 -68 148q-1 15 -64 91q-57 69 -131 112q-124 71 -211 93q-56 14 -135 25z" unicode="∂"/>
<glyph vert-adv-y="1731" glyph-name="product" horiz-adv-x="1365" unicode="∏" d="M51 1536h1263v-154h-150v-1740h150v-154h-472v154h150v1740h-618v-1740h147v-154h-470v154h152v1740h-152v154z"/>
<glyph vert-adv-y="1731" glyph-name="summation" horiz-adv-x="1365" unicode="∑" d="M1236 1536v-482h-173l-19 306h-762l507 -810l-506 -887h780l11 310h180v-485h-1184v203l494 858l-494 787v200h1166z"/>
<glyph vert-adv-y="1731" glyph-name="minus" horiz-adv-x="778" unicode="−" d="M691 776v-159h-604v159h604z"/>
<glyph vert-adv-y="1731" glyph-name="radical" horiz-adv-x="1365" unicode="√" d="M1365 1693v-159h-382l-441 -1534h-212l-162 583h-168v159h279l80 -270q9 -35 55 -248l6 -33h10q8 39 42 178l52 213l93 321l226 790h522z"/>
<glyph vert-adv-y="1731" glyph-name="infinity" horiz-adv-x="1365" unicode="∞" d="M614 696q-11 16 -18 27q-110 163 -238 163q-83 0 -134 -60q-45 -52 -45 -129q0 -99 69 -151q50 -39 113 -39q106 0 196 109q19 25 40 54zM751 697q14 -20 18 -27q112 -163 238 -163q82 0 134 61q45 51 45 128q0 99 -69 152q-50 38 -113 38q-105 0 -195 -110 q-20 -24 -41 -54zM686 604q-153 -220 -340 -220q-156 0 -243 111q-65 83 -65 204q0 174 134 260q79 50 174 50q187 0 334 -220q149 220 341 220q159 0 245 -115q61 -83 61 -198q0 -150 -97 -235q-86 -77 -207 -77q-191 0 -337 220z"/>
<glyph vert-adv-y="1731" glyph-name="approxequal" d="M123 338l-103 71q107 243 285 243q76 0 236 -77q96 -46 125 -54q31 -9 57 -9q68 0 114 49q26 27 63 85l103 -72q-105 -240 -303 -240q-32 0 -75 14q-41 12 -165 73q-106 51 -167 51q-55 0 -100 -44q-31 -29 -70 -90zM123 712l-103 72q108 243 285 243q76 0 236 -77 q97 -47 125 -55q30 -9 56 -9q69 0 115 50q26 27 63 84l103 -71q-104 -241 -303 -241q-32 0 -75 14q-42 13 -165 73q-107 52 -167 52q-55 0 -100 -44q-31 -30 -70 -91z" unicode="≈"/>
<glyph vert-adv-y="1731" glyph-name="notequal" horiz-adv-x="778" unicode="≠" d="M574 933h117v-159h-181l-63 -155h244v-159h-308l-66 -164l-147 60l42 104h-125v159h189l63 155h-252v159h316l64 160l148 -60z"/>
<glyph vert-adv-y="1731" glyph-name="lessequal" d="M955 308v-176h-887v176h887zM955 1245v-189l-668 -251l668 -251v-188l-887 354v171z" unicode="≤"/>
<glyph vert-adv-y="1731" glyph-name="greaterequal" d="M68 132v176h887v-176h-887zM69 366v188l667 251l-668 251v189l887 -354v-171z" unicode="≥"/>
<glyph vert-adv-y="1731" glyph-name="lozenge" horiz-adv-x="1365" unicode="◊" d="M683 1238l-404 -555l404 -554l403 554zM683 1419l531 -736l-531 -736l-532 736z"/>
<glyph vert-adv-y="1731" glyph-name="glyph260" d="M731 1656v-182h-177v182h177zM471 1656v-182h-177v182h177z"/>
<glyph vert-adv-y="1731" glyph-name="glyph262" d="M614 1474h-205l-120 164h165l58 -63l58 63h164z"/>
<glyph vert-adv-y="1731" glyph-name="glyph263" d="M731 1365v-182h-177v182h177zM471 1365v-182h-177v182h177z"/>
<glyph vert-adv-y="1731" glyph-name="glyph264" d="M409 1638h205l120 -164h-165l-58 63l-58 -63h-164z"/>
<glyph vert-adv-y="1731" glyph-name="glyph265" d="M583 1474h-144l-148 164h198z"/>
<glyph vert-adv-y="1731" glyph-name="glyph266" d="M414 1474l93 164h199l-148 -164h-144z"/>
<glyph vert-adv-y="1731" glyph-name="glyph267" d="M744 1656v-182h-177v182h177zM457 1656v-182h-177v182h177z"/>
<glyph vert-adv-y="1731" glyph-name="glyph268" d="M511 1662q-29 0 -52 -21q-22 -21 -22 -51t22 -51q23 -21 53 -21q31 0 53 21t22 51q0 31 -22 51q-23 21 -54 21zM514 1733q59 0 104 -42q44 -40 44 -100t-44 -102t-106 -42t-106 42t-44 102q0 61 44 100q47 42 108 42z"/>
<glyph vert-adv-y="1731" glyph-name="glyph269" d="M314 1470v141q53 31 114 31q41 0 88 -16q65 -23 99 -23q36 0 95 34v-142q-59 -34 -96 -34q-33 0 -98 23q-47 16 -88 16q-61 0 -114 -30z"/>
</font>
</defs>
</svg>
